<?xml version="1.0" encoding="UTF-8" standalone="no"?>
<!DOCTYPE svg PUBLIC "-//W3C//DTD SVG 1.1//EN"
 "http://www.w3.org/Graphics/SVG/1.1/DTD/svg11.dtd">
<!-- Generated by graphviz version 2.40.1 (20161225.0304)
 -->
<!-- Title: customer_data Pages: 1 -->
<svg width="298pt" height="371pt"
 viewBox="0.00 0.00 297.50 371.00" xmlns="http://www.w3.org/2000/svg" xmlns:xlink="http://www.w3.org/1999/xlink">
<g id="graph0" class="graph" transform="scale(1 1) rotate(0) translate(4 367)">
<title>customer_data</title>
<polygon fill="#ffffff" stroke="transparent" points="-4,4 -4,-367 293.5,-367 293.5,4 -4,4"/>
<!-- transaction_id -->
<g id="node1" class="node">
<title>transaction_id</title>
<polygon fill="none" stroke="#000000" points="21.5,-256.5 21.5,-362.5 255.5,-362.5 255.5,-256.5 21.5,-256.5"/>
<text text-anchor="middle" x="138.5" y="-347.3" font-family="Times,serif" font-size="14.00" fill="#000000">transaction_id (500 rows)</text>
<polyline fill="none" stroke="#000000" points="21.5,-339.5 255.5,-339.5 "/>
<text text-anchor="start" x="29.5" y="-324.3" font-family="Times,serif" font-size="14.00" fill="#000000">transaction_id : index</text>
<text text-anchor="start" x="29.5" y="-309.3" font-family="Times,serif" font-size="14.00" fill="#000000">session_id : id</text>
<text text-anchor="start" x="29.5" y="-294.3" font-family="Times,serif" font-size="14.00" fill="#000000">transaction_time : datetime_time_index</text>
<text text-anchor="start" x="29.5" y="-279.3" font-family="Times,serif" font-size="14.00" fill="#000000">product_id : id</text>
<text text-anchor="start" x="29.5" y="-264.3" font-family="Times,serif" font-size="14.00" fill="#000000">amount : numeric</text>
</g>
<!-- product_id -->
<g id="node2" class="node">
<title>product_id</title>
<polygon fill="none" stroke="#000000" points="0,-143.5 0,-204.5 125,-204.5 125,-143.5 0,-143.5"/>
<text text-anchor="middle" x="62.5" y="-189.3" font-family="Times,serif" font-size="14.00" fill="#000000">product_id (5 rows)</text>
<polyline fill="none" stroke="#000000" points="0,-181.5 125,-181.5 "/>
<text text-anchor="start" x="8" y="-166.3" font-family="Times,serif" font-size="14.00" fill="#000000">product_id : index</text>
<text text-anchor="start" x="8" y="-151.3" font-family="Times,serif" font-size="14.00" fill="#000000">brand : categorical</text>
</g>
<!-- transaction_id&#45;&gt;product_id -->
<g id="edge2" class="edge">
<title>transaction_id&#45;&gt;product_id</title>
<path fill="none" stroke="#000000" d="M73.25,-256.3357C73.25,-256.3357 73.25,-214.7285 73.25,-214.7285"/>
<polygon fill="#000000" stroke="#000000" points="76.7501,-214.7285 73.25,-204.7285 69.7501,-214.7286 76.7501,-214.7285"/>
<text text-anchor="middle" x="43.75" y="-239.3321" font-family="Times,serif" font-size="14.00" fill="#000000">product_id</text>
</g>
<!-- session_id -->
<g id="node3" class="node">
<title>session_id</title>
<polygon fill="none" stroke="#000000" points="143.5,-128.5 143.5,-219.5 287.5,-219.5 287.5,-128.5 143.5,-128.5"/>
<text text-anchor="middle" x="215.5" y="-204.3" font-family="Times,serif" font-size="14.00" fill="#000000">session_id (35 rows)</text>
<polyline fill="none" stroke="#000000" points="143.5,-196.5 287.5,-196.5 "/>
<text text-anchor="start" x="151.5" y="-181.3" font-family="Times,serif" font-size="14.00" fill="#000000">session_id : index</text>
<text text-anchor="start" x="151.5" y="-166.3" font-family="Times,serif" font-size="14.00" fill="#000000">customer_id : id</text>
<text text-anchor="start" x="151.5" y="-151.3" font-family="Times,serif" font-size="14.00" fill="#000000">device : categorical</text>
<text text-anchor="start" x="151.5" y="-136.3" font-family="Times,serif" font-size="14.00" fill="#000000">session_start : datetime</text>
</g>
<!-- transaction_id&#45;&gt;session_id -->
<g id="edge1" class="edge">
<title>transaction_id&#45;&gt;session_id</title>
<path fill="none" stroke="#000000" d="M199.5,-256.3357C199.5,-256.3357 199.5,-229.5525 199.5,-229.5525"/>
<polygon fill="#000000" stroke="#000000" points="203.0001,-229.5525 199.5,-219.5525 196.0001,-229.5525 203.0001,-229.5525"/>
<text text-anchor="middle" x="171" y="-231.7441" font-family="Times,serif" font-size="14.00" fill="#000000">session_id</text>
</g>
<!-- customer_id -->
<g id="node4" class="node">
<title>customer_id</title>
<polygon fill="none" stroke="#000000" points="141.5,-.5 141.5,-91.5 289.5,-91.5 289.5,-.5 141.5,-.5"/>
<text text-anchor="middle" x="215.5" y="-76.3" font-family="Times,serif" font-size="14.00" fill="#000000">customer_id (5 rows)</text>
<polyline fill="none" stroke="#000000" points="141.5,-68.5 289.5,-68.5 "/>
<text text-anchor="start" x="149.5" y="-53.3" font-family="Times,serif" font-size="14.00" fill="#000000">customer_id : index</text>
<text text-anchor="start" x="149.5" y="-38.3" font-family="Times,serif" font-size="14.00" fill="#000000">zip_code : categorical</text>
<text text-anchor="start" x="149.5" y="-23.3" font-family="Times,serif" font-size="14.00" fill="#000000">join_date : datetime</text>
<text text-anchor="start" x="149.5" y="-8.3" font-family="Times,serif" font-size="14.00" fill="#000000">date_of_birth : datetime</text>
</g>
<!-- session_id&#45;&gt;customer_id -->
<g id="edge3" class="edge">
<title>session_id&#45;&gt;customer_id</title>
<path fill="none" stroke="#000000" d="M215.5,-128.1506C215.5,-128.1506 215.5,-101.5293 215.5,-101.5293"/>
<polygon fill="#000000" stroke="#000000" points="219.0001,-101.5292 215.5,-91.5293 212.0001,-101.5293 219.0001,-101.5292"/>
<text text-anchor="middle" x="181.5" y="-103.6399" font-family="Times,serif" font-size="14.00" fill="#000000">customer_id</text>
</g>
</g>
</svg>
